<svg width="631" height="609" viewBox="0 0 631 609" fill="none" xmlns="http://www.w3.org/2000/svg">
<path d="M582.804 83.5689L510.571 23.5567C479.249 -2.48824 433.796 -2.48824 402.461 23.5567L315.082 96.1444L227.775 23.5567C196.453 -2.48824 151.073 -2.52498 119.702 23.4832L47.298 83.5689C19.8571 106.332 4 140.116 4 175.785V325.222C4 360.83 19.8327 394.589 47.2122 417.353L238.429 576.34C282.816 613.234 347.237 613.234 391.588 576.34L582.828 417.328C610.208 394.565 626.041 360.806 626.041 325.197V175.712C626.041 140.128 610.184 106.332 582.804 83.5689ZM569.677 315.279C569.677 340.406 558.461 364.271 539.151 380.336L369.069 521.753C337.747 547.797 292.294 547.797 260.935 521.753L90.853 380.336C71.5428 364.271 60.3755 340.406 60.3755 315.291V185.691C60.3755 160.528 71.5796 136.675 90.9633 120.61L142.196 78.1077C160.49 62.924 186.975 62.9607 205.233 78.1444L270.988 132.793L175.049 212.471C151.331 232.21 151.294 268.602 175.012 288.34L283.294 378.585C301.588 393.806 328.11 393.842 346.404 378.622L454.992 288.34C478.698 268.602 478.698 232.21 454.992 212.471L402.277 168.646C399.669 166.479 395.873 166.479 393.265 168.646L360.18 196.136C356.788 198.953 356.788 204.157 360.18 206.973L399.388 239.569C406.196 245.202 406.196 255.597 399.388 261.242L323.91 324.034C318.657 328.369 311.09 328.369 305.873 323.997L230.604 261.279C223.845 255.646 223.845 245.238 230.641 239.606L291.559 189.01L306.082 176.961L359.188 132.842L401.359 97.8097L425.004 78.1444C443.298 62.9485 469.784 62.9485 488.041 78.1444L539.163 120.597C558.473 136.663 569.677 160.491 569.677 185.642V315.279Z" fill="black"/>
</svg>
